<svg xmlns="http://www.w3.org/2000/svg" viewBox="0 0 469.54 406.61"><defs><style>.cls-1{fill:#1e1e1e;}</style></defs><g id="Camada_2" data-name="Camada 2"><g id="Camada_1-2" data-name="Camada 1"><polygon class="cls-1" points="103.83 57.76 105.73 61.04 103.83 61.04 103.83 57.76"/><polygon class="cls-1" points="469.54 0 434.3 61.04 290.6 309.92 270.01 345.59 234.78 406.61 234.77 406.59 234.73 406.52 199.55 345.58 199.54 345.57 234.77 284.55 255.36 248.88 363.81 61.04 217.4 61.04 270.02 152.18 234.78 213.23 146.91 61.04 111.67 0 469.54 0"/><polygon class="cls-1" points="214.18 248.89 178.95 309.91 178.94 309.93 0 0 70.49 0 103.83 57.75 103.83 57.76 105.73 61.04 214.18 248.89"/></g></g></svg>