<svg xmlns="http://www.w3.org/2000/svg" viewBox="0 0 167.35 144.57"><defs><style>.cls-1{fill:#202020;}</style></defs><g id="Camada_2" data-name="Camada 2"><g id="Camada_1-2" data-name="Camada 1"><line class="cls-1" x1="138.36" y1="0.01" x2="138.36" y2="0.02"/><polygon class="cls-1" points="148.03 0.01 148.02 0.02 138.36 0.02 128.7 0.02 128.7 0.01 148.03 0.01"/><polygon class="cls-1" points="74.02 94.7 64.36 111.42 64.35 111.43 9.67 16.74 4.83 8.37 0 0 19.33 0 19.33 0.01 24.1 8.27 24.16 8.37 28.99 16.74 74.02 94.7"/><polygon class="cls-1" points="19.33 0.01 24.1 8.27 19.33 0.01 19.33 0.01"/><polygon class="cls-1" points="74.02 94.7 74.02 94.7 28.99 16.74 74.02 94.7"/><polygon class="cls-1" points="167.35 0.01 167.34 0.03 167.34 0.03 148.02 0.02 148.03 0.01 167.35 0.01"/><polygon class="cls-1" points="167.34 0.03 162.51 8.39 157.68 16.76 112.67 94.7 107.84 103.06 107.84 103.06 103 111.43 103 111.43 98.17 119.79 98.17 119.79 93.34 128.15 93.34 128.16 93.34 128.16 86.77 139.54 86.77 139.54 83.86 144.57 83.31 144.25 82.14 142.21 82.14 142.21 78.85 136.52 74.02 128.16 74.02 128.15 83.68 111.43 83.68 111.43 83.68 111.42 88.51 103.06 93.34 94.7 93.34 94.7 93.34 94.7 98.17 86.33 103 77.97 138.36 16.76 128.69 16.75 119.04 16.75 67.64 16.75 93.34 61.24 88.51 69.6 83.68 77.97 83.68 77.97 48.32 16.74 43.48 8.37 38.66 0.01 38.65 0.01 48.32 0.01 57.98 0.01 82.84 0.01 128.7 0.02 138.36 0.02 148.02 0.02 167.34 0.03 167.34 0.03"/></g></g></svg>